<svg xmlns="http://www.w3.org/2000/svg" viewBox="0 0 123.9 118.69"><defs><style>.cls-1{fill:#e67a25;}.cls-1,.cls-2,.cls-3,.cls-4,.cls-5{fill-rule:evenodd;}.cls-2{fill:#b95e28;}.cls-3,.cls-6{fill:#fff;}.cls-5{fill:#ee9921;}</style></defs><title>Asset 1</title><g id="Layer_2" data-name="Layer 2"><g id="Objects"><path class="cls-1" d="M77.7,39.89C92.46,7,122.67,0,122.67,0s10.54,55.93-30,61.44Z"/><path class="cls-2" d="M81.22,43.8c16.89-30.74,35.45-33.27,35.45-33.27s9.47,34-27.27,47Z"/><path class="cls-2" d="M122.68,0A72.24,72.24,0,0,0,81,38.39q-1-.66-2-1.25C94.15,6.58,122.67,0,122.67,0Z"/><path class="cls-1" d="M46.2,39.89C31.44,7,1.23,0,1.23,0s-10.54,55.93,30,61.44Z"/><path class="cls-2" d="M42.69,43.8C25.8,13.06,7.23,10.53,7.23,10.53s-9.47,34,27.27,47Z"/><path class="cls-2" d="M1.22,0A72.24,72.24,0,0,1,42.86,38.39q1-.66,2-1.25C29.75,6.58,1.23,0,1.23,0Z"/><path class="cls-1" d="M31.07,49.94c-6.29,9.47,1,29-9.29,37.36-20,16.36,21.88,17.35,40,21.23,18.1-3.87,61.48-4.87,41.52-21.23C93,78.89,100.28,59.41,94,49.94,87.17,39.65,74.75,32.36,62.53,31.71,50.31,32.36,37.89,39.65,31.07,49.94Z"/><path class="cls-3" d="M62.53,102.54c-4.27-1.14-15.71,1.49-20.15-6.08-6.58-11.22-29-9.48-34-4.5l6.81,2.19c-3.87,2.88-9.84,10-6.6,17.31l12.3-6.35c-4.2,5.5-4.51,8.25-3.66,13.58,7.13-4.44,23.68-8.35,30.46-9,2.51,3,10.71,8.48,14.81,8.48s12.3-5.5,14.81-8.48c6.78.63,23.33,4.54,30.46,9,.85-5.33.54-8.08-3.66-13.58l12.3,6.35c3.24-7.3-2.73-14.43-6.6-17.31L116.66,92c-5-5-27.4-6.73-34,4.5C78.24,104,66.81,101.4,62.53,102.54Z"/><path class="cls-4" d="M62.53,99.7c-13.47-.14-13.35,4.74-6.3,9.71a46.52,46.52,0,0,0,6.3,3.79,46.51,46.51,0,0,0,6.31-3.79C75.88,104.44,76,99.56,62.53,99.7Z"/><path class="cls-5" d="M34.22,71c-.77,1,18.63-8.46,23.71,11.39,0,0-3.59-6.57-4.81-4.07-2.85,5.85-14.4,4.43-12.75-4C40.83,72.11,34.59,70.87,34.22,71Z"/><path class="cls-5" d="M92,71c.77,1-18.63-8.46-23.71,11.39,0,0,3.59-6.57,4.81-4.07,2.84,5.85,14.4,4.43,12.75-4C85.36,72.11,91.59,70.87,92,71Z"/><path class="cls-6" d="M45.55,80.55a4.93,4.93,0,1,0-3.87-5.8A4.93,4.93,0,0,0,45.55,80.55Zm-2.09-5.44a3.11,3.11,0,1,1,6.11,1.21,3.22,3.22,0,0,1-.19.61,3,3,0,0,0-1.89-1.11,3.67,3.67,0,0,0-3.7,1.39A3.08,3.08,0,0,1,43.46,75.11Z"/><path d="M47.48,75.83a3,3,0,0,1,1.89,1.11,3.22,3.22,0,0,0,.19-.61,3.11,3.11,0,1,0-5.78.9A3.67,3.67,0,0,1,47.48,75.83Z"/><path class="cls-6" d="M83.34,74.76a4.93,4.93,0,1,0-3.87,5.8A4.93,4.93,0,0,0,83.34,74.76Zm-2.11,2.47a3.67,3.67,0,0,0-3.7-1.39,3,3,0,0,0-1.89,1.11,3.22,3.22,0,0,1-.19-.61,3.11,3.11,0,1,1,5.78.9Z"/><path d="M77.54,75.83a3,3,0,0,0-1.89,1.11,3.22,3.22,0,0,1-.19-.61,3.11,3.11,0,1,1,5.78.9A3.67,3.67,0,0,0,77.54,75.83Z"/></g></g></svg>